<svg width="77" height="56" viewBox="0 0 77 56" fill="none" xmlns="http://www.w3.org/2000/svg">
<circle cx="39.6001" cy="28.5" r="23.04" fill="#545456" stroke="white" stroke-width="1.92"/>
<path d="M38.1876 28.5L29.8876 36.7875C29.7281 36.9818 29.6466 37.2284 29.659 37.4795C29.6713 37.7305 29.7766 37.968 29.9543 38.1458C30.132 38.3235 30.3695 38.4288 30.6206 38.4411C30.8716 38.4534 31.1183 38.3719 31.3126 38.2125L39.6001 29.9125L47.8876 38.2125C48.0819 38.3719 48.3285 38.4534 48.5796 38.4411C48.8307 38.4288 49.0681 38.3235 49.2459 38.1458C49.4236 37.968 49.5289 37.7305 49.5412 37.4795C49.5535 37.2284 49.4721 36.9818 49.3126 36.7875L41.0126 28.5L49.3126 20.2125C49.5004 20.0229 49.6057 19.7668 49.6057 19.5C49.6057 19.2331 49.5004 18.9771 49.3126 18.7875C49.1214 18.6027 48.866 18.4993 48.6001 18.4993C48.3342 18.4993 48.0787 18.6027 47.8876 18.7875L39.6001 27.0875L31.3126 18.7875C31.1214 18.6027 30.866 18.4993 30.6001 18.4993C30.3342 18.4993 30.0787 18.6027 29.8876 18.7875C29.6998 18.9771 29.5945 19.2331 29.5945 19.5C29.5945 19.7668 29.6998 20.0229 29.8876 20.2125L38.1876 28.5Z" fill="white"/>
</svg>
