<svg width="25" height="24" viewBox="0 0 25 24" fill="none" xmlns="http://www.w3.org/2000/svg">
<g id="&#240;&#159;&#166;&#134; icon &#34;Chat Help&#34;">
<path id="Vector" d="M12.5 0C19.1268 0 24.499 5.37213 24.499 11.999C24.499 18.6258 19.1268 23.998 12.5 23.998C10.5582 23.998 8.68173 23.5355 6.99592 22.6637L2.40532 23.9443C1.60749 24.1672 0.78011 23.701 0.557325 22.9032C0.483591 22.6392 0.483627 22.36 0.557373 22.0963L1.83846 17.5092C0.964642 15.8219 0.501038 13.9432 0.501038 11.999C0.501038 5.37213 5.87316 0 12.5 0ZM12.5 1.79985C6.8672 1.79985 2.30089 6.36616 2.30089 11.999C2.30089 13.7624 2.74817 15.4588 3.58841 16.9636L3.76918 17.2872L2.43403 22.0678L7.21753 20.7333L7.54095 20.9136C9.04439 21.7519 10.7388 22.1981 12.5 22.1981C18.1328 22.1981 22.6992 17.6318 22.6992 11.999C22.6992 6.36616 18.1328 1.79985 12.5 1.79985ZM12.5 16.1986C13.1627 16.1986 13.6999 16.7358 13.6999 17.3985C13.6999 18.0612 13.1627 18.5984 12.5 18.5984C11.8373 18.5984 11.3001 18.0612 11.3001 17.3985C11.3001 16.7358 11.8373 16.1986 12.5 16.1986ZM12.5 5.69952C14.3224 5.69952 15.7997 7.17686 15.7997 8.99924C15.7997 10.2121 15.4428 10.8879 14.5385 11.8293L14.3362 12.0353C13.59 12.7816 13.3999 13.0985 13.3999 13.7988C13.3999 14.2958 12.997 14.6988 12.5 14.6988C12.003 14.6988 11.6001 14.2958 11.6001 13.7988C11.6001 12.586 11.9571 11.9102 12.8613 10.9688L13.0636 10.7627C13.8098 10.0165 13.9999 9.69962 13.9999 8.99924C13.9999 8.17088 13.3284 7.49937 12.5 7.49937C11.7234 7.49937 11.0847 8.08956 11.0079 8.84588L11.0002 8.99924C11.0002 9.49625 10.5972 9.89916 10.1002 9.89916C9.60322 9.89916 9.2003 9.49625 9.2003 8.99924C9.2003 7.17686 10.6776 5.69952 12.5 5.69952Z" fill="white"/>
</g>
</svg>
