<svg width="24" height="24" viewBox="0 0 24 24" fill="none" xmlns="http://www.w3.org/2000/svg">
<g id="&#240;&#159;&#166;&#134; icon &#34;Chat&#34;">
<path id="Vector" d="M12 0C5.37262 0 2.00892e-05 5.37258 2.00892e-05 12C2.00892e-05 14.0791 0.5296 16.0372 1.46172 17.744L0.0384999 22.7252C-0.0634001 23.082 0.0405003 23.4658 0.30844 23.7224C0.5764 23.9788 0.96434 24.066 1.31626 23.9486L5.99236 22.39C7.75978 23.414 9.81278 24 12 24C18.6274 24 24 18.6274 24 12C24 5.37258 18.6274 0 12 0ZM8 10C8 9.44772 8.44772 9 9 9H15C15.5523 9 16 9.44772 16 10C16 10.5523 15.5523 11 15 11H9C8.44772 11 8 10.5523 8 10ZM9 13H13C13.5523 13 14 13.4477 14 14C14 14.5523 13.5523 15 13 15H9C8.44772 15 8 14.5523 8 14C8 13.4477 8.44772 13 9 13Z" fill="white"/>
</g>
</svg>
