<svg width="23" height="24" viewBox="0 0 23 24" fill="none" xmlns="http://www.w3.org/2000/svg">
<path d="M10.2329 0.504189C10.9439 -0.168063 12.0561 -0.168063 12.7672 0.504189L21.7008 8.95062C22.2536 9.47323 22.5668 10.2004 22.5668 10.961V21.2333C22.5668 22.7613 21.3281 24 19.8001 24H16.1112C14.5832 24 13.3445 22.7613 13.3445 21.2333V16.6221C13.3445 16.1129 12.9316 15.7 12.4223 15.7H10.5778C10.0685 15.7 9.65555 16.1129 9.65555 16.6221V21.2333C9.65555 22.7613 8.41687 24 6.88886 24H3.19993C1.67192 24 0.433228 22.7613 0.433228 21.2333V10.961C0.433228 10.2004 0.746418 9.47323 1.29917 8.95062L10.2329 0.504189ZM11.5 1.84447L2.56633 10.2909C2.38209 10.4651 2.27769 10.7075 2.27769 10.961V21.2333C2.27769 21.7426 2.69059 22.1555 3.19993 22.1555H6.88886C7.39819 22.1555 7.81109 21.7426 7.81109 21.2333V16.6221C7.81109 15.0942 9.04978 13.8555 10.5778 13.8555H12.4223C13.9503 13.8555 15.1889 15.0942 15.1889 16.6221V21.2333C15.1889 21.7426 15.6019 22.1555 16.1112 22.1555H19.8001C20.3094 22.1555 20.7223 21.7426 20.7223 21.2333V10.961C20.7223 10.7075 20.6179 10.4651 20.4337 10.2909L11.5 1.84447Z" fill="white"/>
</svg>
