<svg width="16" height="16" viewBox="0 0 16 16" fill="none" xmlns="http://www.w3.org/2000/svg">
<g id="Paperclip">
<path id="Vector" d="M13.1062 7.6439C13.1993 7.73952 13.2509 7.86801 13.2497 8.00144C13.2485 8.13487 13.1947 8.26243 13.1 8.3564L7.975 13.4752C7.31858 14.1316 6.4283 14.5003 5.5 14.5003C4.57169 14.5003 3.68141 14.1316 3.025 13.4752C2.36858 12.8187 1.99982 11.9285 1.99982 11.0002C1.99982 10.0718 2.36858 9.18156 3.025 8.52515L9.23124 2.23765C9.46087 1.99554 9.73664 1.80184 10.0423 1.66798C10.348 1.53412 10.6773 1.46281 11.011 1.45824C11.3446 1.45368 11.6758 1.51596 11.9851 1.6414C12.2943 1.76685 12.5752 1.95293 12.8114 2.18868C13.0476 2.42442 13.2341 2.70506 13.3601 3.01405C13.4861 3.32303 13.549 3.65412 13.545 3.98778C13.541 4.32145 13.4703 4.65094 13.337 4.95684C13.2037 5.26274 13.0105 5.53885 12.7687 5.7689L6.56249 12.0564C6.42377 12.1973 6.25836 12.3091 6.07592 12.3853C5.89349 12.4614 5.6977 12.5005 5.5 12.5002C5.20279 12.5009 4.91206 12.4133 4.66471 12.2485C4.41736 12.0838 4.22453 11.8492 4.11069 11.5747C3.99686 11.3001 3.96715 10.998 4.02533 10.7065C4.08352 10.4151 4.22697 10.1474 4.4375 9.93765L9.64374 4.65015C9.6888 4.59962 9.74364 4.55876 9.80495 4.53006C9.86626 4.50135 9.93277 4.4854 10.0004 4.48316C10.0681 4.48092 10.1355 4.49245 10.1986 4.51704C10.2617 4.54163 10.3191 4.57877 10.3674 4.62622C10.4157 4.67366 10.4538 4.73042 10.4795 4.79305C10.5052 4.85568 10.5179 4.92288 10.5169 4.99057C10.5159 5.05826 10.5011 5.12504 10.4735 5.18685C10.4459 5.24866 10.406 5.30422 10.3562 5.35015L5.15 10.6439C5.1026 10.6904 5.06493 10.7458 5.03918 10.8069C5.01342 10.8681 5.0001 10.9338 5 11.0002C5.00183 11.0985 5.03229 11.1942 5.08764 11.2756C5.143 11.3569 5.22085 11.4203 5.31169 11.4581C5.40252 11.4959 5.5024 11.5064 5.59911 11.4884C5.69583 11.4703 5.78518 11.4244 5.85625 11.3564L12.0562 5.06265C12.1971 4.92393 12.3089 4.75852 12.3851 4.57608C12.4613 4.39365 12.5003 4.19786 12.5 4.00015C12.5007 3.70295 12.4131 3.41222 12.2484 3.16487C12.0836 2.91752 11.8491 2.72469 11.5745 2.61085C11.3 2.49702 10.9978 2.46731 10.7063 2.52549C10.4149 2.58368 10.1473 2.72713 9.93749 2.93765L3.7375 9.2314C3.49538 9.46103 3.30168 9.7368 3.16782 10.0425C3.03396 10.3481 2.96265 10.6775 2.95808 11.0111C2.95352 11.3448 3.0158 11.676 3.14124 11.9852C3.26669 12.2944 3.45278 12.5754 3.68852 12.8115C3.92426 13.0477 4.2049 13.2343 4.51389 13.3603C4.82288 13.4863 5.15396 13.5491 5.48762 13.5452C5.82129 13.5412 6.15078 13.4705 6.45668 13.3371C6.76258 13.2038 7.03869 13.0106 7.26874 12.7689L12.3937 7.6439C12.4885 7.55001 12.6166 7.49734 12.75 7.49734C12.8834 7.49734 13.0114 7.55001 13.1062 7.6439Z" fill="white"/>
</g>
</svg>
