<svg width="24" height="24" viewBox="0 0 24 24" fill="none" xmlns="http://www.w3.org/2000/svg">
<path d="M20.9437 10.6874L5.14686 1.84673C4.88365 1.69324 4.58056 1.62194 4.27652 1.64198C3.97249 1.66203 3.68139 1.77251 3.44061 1.95923C3.19471 2.15324 3.01617 2.41979 2.93034 2.72102C2.84452 3.02226 2.85576 3.34287 2.96248 3.63735L5.59686 10.9967C5.62351 11.0701 5.67187 11.1336 5.73551 11.1788C5.79915 11.2241 5.87505 11.2488 5.95311 11.2499H12.7219C12.9165 11.2468 13.105 11.3176 13.2494 11.4481C13.3939 11.5786 13.4834 11.759 13.5 11.953C13.5064 12.0553 13.4917 12.1579 13.4569 12.2544C13.4221 12.3509 13.3679 12.4392 13.2976 12.5139C13.2273 12.5886 13.1424 12.648 13.0483 12.6886C12.9541 12.7292 12.8525 12.7501 12.75 12.7499H5.95311C5.87505 12.7509 5.79915 12.7756 5.73551 12.8209C5.67187 12.8661 5.62351 12.9296 5.59686 13.003L2.96248 20.3624C2.88344 20.5891 2.85962 20.8314 2.89301 21.0691C2.92639 21.3069 3.01602 21.5333 3.15445 21.7295C3.29287 21.9256 3.4761 22.086 3.68892 22.1971C3.90174 22.3083 4.13801 22.3671 4.37811 22.3686C4.6336 22.3675 4.88483 22.303 5.10936 22.1811L20.9437 13.3124C21.1757 13.1806 21.3686 12.9897 21.5028 12.7592C21.637 12.5286 21.7078 12.2666 21.7078 11.9999C21.7078 11.7331 21.637 11.4711 21.5028 11.2405C21.3686 11.01 21.1757 10.8191 20.9437 10.6874Z" fill="white"/>
</svg>
