<svg width="16" height="16" viewBox="0 0 16 16" fill="none" xmlns="http://www.w3.org/2000/svg">
<g id="Smiley">
<path id="Vector" d="M8 1.5C6.71442 1.5 5.45772 1.88122 4.3888 2.59545C3.31988 3.30968 2.48676 4.32484 1.99479 5.51256C1.50282 6.70028 1.37409 8.00721 1.6249 9.26809C1.8757 10.529 2.49477 11.6872 3.40381 12.5962C4.31285 13.5052 5.47104 14.1243 6.73192 14.3751C7.99279 14.6259 9.29973 14.4972 10.4874 14.0052C11.6752 13.5132 12.6903 12.6801 13.4046 11.6112C14.1188 10.5423 14.5 9.28558 14.5 8C14.4967 6.27711 13.8108 4.62573 12.5925 3.40746C11.3743 2.18918 9.72289 1.5033 8 1.5ZM10.25 6C10.3983 6 10.5433 6.04399 10.6667 6.1264C10.79 6.20881 10.8861 6.32594 10.9429 6.46299C10.9997 6.60003 11.0145 6.75083 10.9856 6.89632C10.9567 7.0418 10.8852 7.17544 10.7803 7.28033C10.6754 7.38522 10.5418 7.45665 10.3963 7.48559C10.2508 7.51453 10.1 7.49968 9.96299 7.44291C9.82595 7.38614 9.70881 7.29001 9.6264 7.16668C9.54399 7.04334 9.5 6.89834 9.5 6.75C9.5 6.55109 9.57902 6.36032 9.71967 6.21967C9.86033 6.07902 10.0511 6 10.25 6ZM5.75 6C5.89834 6 6.04334 6.04399 6.16668 6.1264C6.29002 6.20881 6.38615 6.32594 6.44291 6.46299C6.49968 6.60003 6.51453 6.75083 6.48559 6.89632C6.45665 7.0418 6.38522 7.17544 6.28033 7.28033C6.17544 7.38522 6.04181 7.45665 5.89632 7.48559C5.75083 7.51453 5.60003 7.49968 5.46299 7.44291C5.32595 7.38614 5.20881 7.29001 5.1264 7.16668C5.04399 7.04334 5 6.89834 5 6.75C5 6.55109 5.07902 6.36032 5.21967 6.21967C5.36032 6.07902 5.55109 6 5.75 6ZM11.0313 9.75C10.7241 10.2821 10.2822 10.724 9.75014 11.0313C9.21804 11.3385 8.61444 11.5003 8 11.5003C7.38557 11.5003 6.78196 11.3385 6.24986 11.0313C5.71776 10.724 5.27592 10.2821 4.96875 9.75C4.92962 9.69323 4.90265 9.62898 4.88955 9.56129C4.87644 9.4936 4.87747 9.42392 4.89258 9.35665C4.9077 9.28938 4.93656 9.22595 4.97736 9.17037C5.01816 9.11479 5.07001 9.06824 5.12966 9.03366C5.18931 8.99908 5.25547 8.97721 5.32398 8.96943C5.39249 8.96165 5.46187 8.96811 5.52776 8.98843C5.59365 9.00875 5.65462 9.04247 5.70685 9.08749C5.75908 9.1325 5.80143 9.18783 5.83125 9.25C6.05145 9.63019 6.36773 9.94581 6.74837 10.1652C7.12901 10.3846 7.56065 10.5001 8 10.5001C8.43936 10.5001 8.87099 10.3846 9.25163 10.1652C9.63228 9.94581 9.94855 9.63019 10.1688 9.25C10.2402 9.14638 10.3481 9.07351 10.4708 9.04592C10.5936 9.01834 10.7223 9.03808 10.8312 9.1012C10.9401 9.16432 11.0211 9.26617 11.0582 9.38644C11.0953 9.5067 11.0857 9.63653 11.0313 9.75Z" fill="white"/>
</g>
</svg>
